<svg xmlns="http://www.w3.org/2000/svg" xmlns:xlink="http://www.w3.org/1999/xlink" width="428" height="677" viewBox="0 0 428 677">
  <defs>
    <clipPath id="a">
      <rect width="428" height="677" transform="translate(0 41)" fill="#fff"/>
    </clipPath>
    <linearGradient id="gradient" gradientTransform="rotate(90)">
      <stop offset="25%" stop-color="rgba(255, 229, 182, 0.3)"/>
      <stop offset="100%" stop-color="rgba(199, 236, 254, 0.3)"/>
      <stop offset="0%" stop-color="rgba(204, 131, 0, .1)"/>
    </linearGradient>
  </defs>
  <g transform="translate(0 -41)" clip-path="url(#a)">
    <g transform="translate(-347.356 40.993)" opacity="0.7">
      <g transform="translate(-49 0.001)">
        <path d="M1164.3,2399.493c-17.974-91.241-68.556-173.289-151.08-200.258-77.59-25.35-151.572,12.866-228.3,19.822-68.366,6.195-140.235-14.952-199.758-47.711-75.837-41.73-139.513-104.3-220.024-137.762-89.436-37.177-192.873-21.781-275.168,28.428-65.3,39.842-115.862,105.273-131.989,180.047C-71,
        2376.45-7.331,2512.816,103,2590.827c54.378,38.454,119.2,62.551,185.905,65.954,92.026,4.688,167.372-42.579,255.563-59.569,55.024-10.6,113.519-10.185,165.394,11.017,85.832,35.067,147.487,126.618,246.208,127.371,60.434.452,120.47-27.706,158.75-74.473,51.8-63.3,68.048-167.372,49.487-261.635"
        transform="translate(49 -2013.001)" 
        fill="url(#gradient)" fill-rule="evenodd"/>
      </g>
    </g>
  </g>
</svg>